<?xml version="1.0" standalone="no"?>
<!DOCTYPE svg PUBLIC "-//W3C//DTD SVG 20010904//EN"
 "http://www.w3.org/TR/2001/REC-SVG-20010904/DTD/svg10.dtd">
<svg version="1.0" xmlns="http://www.w3.org/2000/svg"
 width="500.000000pt" height="500.000000pt" viewBox="0 0 500.000000 500.000000"
 preserveAspectRatio="xMidYMid meet">
<metadata>
Created by potrace 1.14, written by Peter Selinger 2001-2017
</metadata>
<g transform="translate(0.000000,500.000000) scale(0.100000,-0.100000)"
fill="#000000" stroke="none">
<path d="M0 2500 l0 -2500 2500 0 2500 0 0 2500 0 2500 -2500 0 -2500 0 0
-2500z m2132 808 c-7 -7 -12 -8 -12 -2 0 14 12 26 19 19 2 -3 -1 -11 -7 -17z
m754 -5 c-7 -7 -26 7 -26 19 0 6 6 6 15 -2 9 -7 13 -15 11 -17z m190 -52 c19
-18 33 -35 31 -37 -2 -2 -30 24 -63 59 -58 60 -35 45 32 -22z m-1118 20 c-24
-27 -45 -47 -47 -45 -5 4 79 94 87 94 2 0 -16 -22 -40 -49z m152 16 c0 -1 -50
-52 -112 -112 l-112 -110 104 111 c90 96 120 124 120 111z m826 -29 l29 -32
-32 25 c-18 13 -32 27 -32 32 -1 12 4 8 35 -25z m119 -118 c44 -44 77 -80 75
-80 -3 0 -41 36 -85 80 -44 44 -77 80 -75 80 3 0 41 -36 85 -80z m-1155 66 c0
-3 -4 -8 -10 -11 -5 -3 -10 -1 -10 4 0 6 5 11 10 11 6 0 10 -2 10 -4z m718
-152 c4 -29 -23 -51 -43 -34 -16 13 -20 42 -8 54 14 14 48 1 51 -20z m172 6
c29 -29 27 -94 -2 -114 -32 -23 -78 -20 -105 6 -29 27 -30 67 -2 102 26 33 79
36 109 6z m-375 -70 c6 -28 7 -28 82 -28 64 -1 85 -5 139 -32 38 -19 80 -50
107 -80 45 -50 49 -51 71 -12 5 8 -2 16 -19 22 -30 12 -29 33 3 38 33 5 62
-16 62 -44 0 -13 -11 -42 -25 -64 -22 -35 -24 -45 -15 -82 15 -65 11 -127 -10
-188 -10 -30 -16 -58 -14 -62 3 -5 17 -8 31 -8 22 0 24 3 19 25 -9 35 0 48 25
35 13 -7 19 -21 19 -45 0 -43 -25 -59 -84 -53 -36 4 -47 0 -86 -33 -25 -20
-60 -44 -78 -53 -27 -14 -32 -21 -30 -48 4 -41 -20 -49 -34 -11 -10 27 -12 28
-87 28 -87 1 -160 28 -224 84 -33 29 -41 32 -77 26 -71 -12 -119 45 -74 89 20
21 37 10 31 -20 -4 -25 13 -37 39 -27 16 6 16 11 -10 78 -17 46 -21 151 -6
190 8 21 5 32 -20 67 -48 65 -37 108 27 108 41 0 45 -26 7 -41 -26 -9 -26 -10
-8 -32 10 -12 19 -23 20 -24 0 -2 14 17 31 41 17 25 57 60 92 81 57 35 61 41
56 66 -4 16 -4 33 0 38 10 17 34 0 40 -29z m715 -623 c0 -1 -60 -61 -132 -132
l-133 -130 130 133 c120 123 135 137 135 129z m-1209 -44 c13 -16 12 -17 -3
-4 -10 7 -18 15 -18 17 0 8 8 3 21 -13z m1189 -118 c-7 -9 -15 -13 -18 -10 -3
2 1 11 8 20 7 9 15 13 18 10 3 -2 -1 -11 -8 -20z m-1125 -69 c44 -42 45 -45
10 -18 -22 16 -53 45 -70 63 -39 43 -5 17 60 -45z m125 9 c30 -30 52 -55 49
-55 -2 0 -29 25 -59 55 -30 30 -52 55 -49 55 2 0 29 -25 59 -55z m1452 -172
c-518 -2 -1366 -2 -1885 0 -518 1 -94 2 943 2 1037 0 1461 -1 942 -2z m-1578
-85 c3 -13 6 -40 6 -61 0 -37 0 -37 24 -22 19 13 29 14 45 5 27 -14 35 -47 29
-117 -4 -46 -10 -61 -32 -80 -15 -13 -34 -23 -43 -23 -15 0 -15 2 0 18 13 14
17 38 17 95 0 70 -2 77 -20 77 -18 0 -20 -7 -20 -64 0 -80 -6 -96 -36 -96
l-24 0 0 130 c0 110 -3 132 -16 137 -22 8 2 23 37 23 19 0 28 -6 33 -22z m620
0 c8 -30 8 -232 0 -252 -3 -9 -17 -16 -30 -16 l-24 0 0 130 c0 110 -3 132 -16
137 -22 8 2 23 37 23 19 0 28 -6 33 -22z m623 10 c-2 -7 -14 -12 -27 -10 -23
4 -80 -41 -80 -62 0 -14 58 -138 90 -194 14 -25 34 -45 48 -49 30 -7 10 -23
-29 -23 -42 0 -76 36 -119 123 l-39 82 -1 -60 c0 -71 -9 -88 -41 -83 -24 3
-24 5 -27 131 -2 114 -4 127 -20 127 -10 0 -27 -6 -37 -14 -24 -17 -14 -46 14
-39 25 6 29 -18 6 -37 -17 -14 -43 -7 -51 15 -19 49 32 95 104 95 44 0 52 -10
52 -68 l0 -36 17 24 c40 60 76 90 111 90 22 0 32 -4 29 -12z m933 -63 c4 -52
8 -66 15 -54 6 9 20 21 32 28 50 26 83 -31 42 -75 -22 -23 -22 -25 -7 -58 25
-51 77 -106 102 -106 17 0 18 -2 6 -10 -20 -13 -54 -12 -85 2 -45 20 -119 158
-85 158 8 0 40 51 40 65 0 3 -7 5 -15 5 -24 0 -45 -55 -45 -115 0 -56 0 -56
-27 -53 l-28 3 -3 133 c-2 82 -6 132 -13 132 -6 0 -7 5 -4 11 4 5 21 9 38 7
l32 -3 5 -70z m-3240 51 c0 -11 -10 -13 -40 -9 l-39 6 -3 -129 -3 -129 -27 -3
-28 -3 0 130 c0 144 -1 146 -60 116 -37 -19 -40 -45 -4 -45 19 0 25 -4 22 -17
-2 -13 -13 -18 -33 -18 -25 0 -30 4 -33 28 -7 58 47 86 166 87 64 0 82 -3 82
-14z m430 -26 c0 -20 -23 -32 -45 -24 -20 8 -19 31 2 42 22 13 43 4 43 -18z
m2700 0 c0 -20 -23 -32 -45 -24 -20 8 -19 31 2 42 22 13 43 4 43 -18z m-3033
-51 c38 -14 43 -24 43 -102 0 -43 4 -66 10 -62 6 3 10 2 10 -3 0 -22 -65 -30
-73 -9 -4 10 -7 10 -18 0 -21 -21 -67 -16 -79 8 -19 35 -4 65 45 88 32 15 45
27 45 41 0 24 -22 35 -47 25 -12 -5 -14 -9 -5 -12 20 -8 14 -33 -8 -33 -33 0
-27 46 8 58 36 14 36 14 69 1z m138 -6 c8 -10 21 -27 29 -38 14 -19 15 -19 30
18 9 20 21 37 26 37 16 0 12 -20 -12 -58 l-21 -35 24 -43 c13 -24 30 -44 39
-44 13 0 13 -1 0 -10 -31 -20 -69 -11 -85 19 -22 44 -31 45 -49 6 -9 -19 -24
-35 -33 -35 -16 0 -13 6 33 73 10 16 9 25 -8 53 -11 19 -27 38 -37 43 -14 8
-13 11 9 20 35 14 38 13 55 -6z m179 11 c13 -5 16 -24 16 -100 0 -92 0 -94
-24 -94 -30 0 -36 16 -36 100 0 45 -4 70 -12 73 -11 4 3 13 39 26 1 1 8 -2 17
-5z m195 -18 c8 -8 16 -44 19 -85 3 -48 8 -68 16 -64 6 4 5 -1 -3 -10 -15 -19
-52 -22 -68 -6 -8 8 -13 8 -17 0 -9 -15 -59 -14 -74 1 -7 7 -12 25 -12 40 0
22 8 33 31 46 63 34 72 45 56 66 -9 13 -20 17 -32 13 -14 -6 -15 -10 -5 -22
10 -12 9 -16 -5 -21 -21 -8 -40 10 -32 31 14 35 94 42 126 11z m105 18 c9 -3
16 -13 16 -22 0 -12 5 -11 24 7 27 25 46 21 46 -9 0 -13 -5 -17 -14 -14 -8 3
-24 1 -35 -6 -18 -9 -21 -20 -21 -80 0 -67 -1 -70 -24 -70 -30 0 -36 16 -36
100 0 45 -4 70 -12 73 -11 4 3 13 39 26 1 1 8 -2 17 -5z m237 -12 c14 -12 20
-25 16 -35 -10 -26 -36 -20 -43 8 -8 31 -24 28 -42 -8 -29 -59 19 -143 67
-118 31 17 38 12 12 -9 -51 -43 -129 -16 -146 51 -10 40 18 97 57 114 43 19
52 18 79 -3z m379 3 c54 -28 61 -114 13 -167 -19 -21 -79 -24 -104 -5 -56 43
-49 139 12 173 31 17 44 17 79 -1z m124 9 c13 -5 16 -22 16 -85 0 -80 9 -96
38 -67 16 16 16 125 0 130 -8 3 -4 9 10 17 16 8 27 9 42 1 17 -9 20 -21 20
-91 0 -61 3 -78 13 -73 8 5 8 2 -2 -9 -17 -21 -60 -22 -67 -2 -5 13 -8 13 -27
0 -30 -21 -64 -19 -77 4 -5 11 -10 49 -10 85 0 46 -4 66 -12 66 -7 1 -2 7 12
15 30 17 25 16 44 9z m405 -18 c8 -8 16 -44 19 -85 3 -48 8 -68 16 -64 6 4 5
-1 -3 -10 -15 -19 -52 -22 -68 -6 -8 8 -13 8 -17 0 -9 -15 -59 -14 -74 1 -7 7
-12 25 -12 40 0 22 8 33 31 46 63 34 72 45 56 66 -9 13 -20 17 -32 13 -14 -6
-15 -10 -5 -22 10 -12 9 -16 -5 -21 -21 -8 -40 10 -32 31 14 35 94 42 126 11z
m568 13 c38 -14 43 -24 43 -102 0 -43 4 -66 10 -62 6 3 10 2 10 -3 0 -22 -65
-30 -73 -9 -4 10 -7 10 -18 0 -21 -21 -67 -16 -79 8 -19 35 -4 65 45 88 32 15
45 27 45 41 0 24 -22 35 -47 25 -12 -5 -14 -9 -5 -12 20 -8 14 -33 -8 -33 -33
0 -27 46 8 58 36 14 36 14 69 1z m143 -4 c10 -12 15 -12 35 1 28 18 45 11 45
-17 0 -15 -5 -18 -23 -14 -34 9 -46 -12 -49 -85 -3 -62 -4 -65 -28 -65 -24 0
-25 2 -28 83 -2 56 -7 82 -15 82 -15 1 23 30 39 30 6 0 17 -7 24 -15z m233
-16 c12 -15 17 -39 17 -86 0 -49 3 -62 13 -57 8 5 8 2 -2 -9 -15 -19 -56 -23
-66 -7 -5 8 -11 7 -20 0 -8 -6 -26 -10 -41 -8 -62 7 -58 80 6 105 21 9 41 22
44 29 8 21 -4 44 -23 44 -25 0 -33 -11 -20 -26 9 -11 7 -15 -6 -20 -21 -9 -37
8 -29 30 15 40 95 43 127 5z m112 17 c16 -12 22 -12 42 1 76 50 112 -131 38
-194 -30 -27 -67 -34 -42 -8 33 33 32 179 -2 173 -12 -3 -17 -19 -21 -78 -5
-73 -6 -75 -32 -78 l-28 -3 0 85 c0 51 -4 86 -10 86 -5 0 -10 4 -10 9 0 8 12
14 41 20 3 0 14 -5 24 -13z m199 8 c13 -5 16 -24 16 -100 0 -92 0 -94 -24 -94
-30 0 -36 16 -36 100 0 45 -4 70 -12 73 -11 4 3 13 39 26 1 1 8 -2 17 -5z
m373 -5 c38 -14 43 -24 43 -102 0 -43 4 -66 10 -62 6 3 10 2 10 -3 0 -22 -65
-30 -73 -9 -4 10 -7 10 -18 0 -21 -21 -67 -16 -79 8 -19 35 -4 65 45 88 32 15
45 27 45 41 0 24 -22 35 -47 25 -12 -5 -14 -9 -5 -12 20 -8 14 -33 -8 -33 -33
0 -27 46 8 58 36 14 36 14 69 1z m-845 -386 c-518 -2 -1366 -2 -1885 0 -518 1
-94 2 943 2 1037 0 1461 -1 942 -2z m-1878 -49 c9 -3 16 -11 16 -18 0 -6 7
-24 15 -40 16 -30 14 -56 -4 -56 -5 0 -18 27 -29 60 -12 33 -19 60 -17 60 2 0
10 -3 19 -6z m122 -11 c-2 -10 -10 -37 -17 -60 -7 -24 -17 -43 -23 -43 -15 0
-36 48 -36 82 0 39 16 35 30 -8 14 -41 30 -30 30 19 0 15 5 27 11 27 6 0 8 -8
5 -17z m104 -3 c0 -11 7 -20 15 -20 22 0 38 -36 25 -60 -14 -25 -46 -26 -60
-1 -16 31 -13 101 5 101 8 0 15 -9 15 -20z m202 -2 c13 -21 9 -65 -8 -82 -34
-34 -74 -15 -74 35 0 10 -7 19 -15 19 -18 0 -20 26 -3 36 7 4 8 3 4 -4 -4 -7
-2 -12 3 -12 6 0 11 7 11 16 0 14 7 15 37 11 20 -4 40 -12 45 -19z m278 -39
c0 -81 -24 -77 -28 4 -2 46 0 57 13 57 12 0 15 -13 15 -61z m420 19 c17 -40
21 -39 24 4 2 31 21 24 32 -11 12 -38 25 -29 26 19 1 29 18 44 18 17 0 -23
-32 -107 -40 -107 -5 0 -13 12 -18 28 l-10 27 -7 -27 c-11 -43 -32 -33 -45 22
-12 51 -24 68 -35 50 -3 -5 -1 -10 4 -10 6 0 11 -4 11 -10 0 -5 -7 -10 -15
-10 -18 0 -20 21 -3 38 22 22 39 13 58 -30z m331 22 c4 -8 10 -24 14 -35 6
-19 7 -19 16 -2 11 18 44 23 54 8 3 -5 -5 -17 -17 -26 -23 -16 -23 -16 -4 -30
19 -15 19 -15 -2 -15 -12 0 -27 10 -33 22 l-12 22 -8 -22 c-9 -25 -41 -29 -59
-7 -16 20 -9 47 17 60 22 11 19 27 -7 38 -9 4 -5 6 9 4 13 -1 27 -9 32 -17z
m189 -40 c0 -78 -17 -78 -22 0 -2 43 1 60 10 60 8 0 12 -19 12 -60z m237 48
c29 -38 19 -108 -16 -108 -43 0 -54 55 -14 75 22 11 19 28 -7 38 -10 4 -9 6 6
6 12 1 26 -5 31 -11z m-1910 -35 c-11 -10 -26 8 -20 23 5 15 7 14 15 -1 6 -9
7 -19 5 -22z m213 -8 c0 -18 -16 -20 -23 -2 -3 6 -4 -1 -3 -16 0 -15 8 -32 16
-37 12 -8 11 -10 -5 -10 -12 0 -26 5 -33 12 -25 25 -6 68 30 68 10 0 18 -7 18
-15z m325 6 c3 -5 -5 -17 -17 -26 -23 -16 -23 -16 -4 -30 19 -15 19 -15 -2
-15 -28 0 -46 33 -32 60 11 21 44 27 55 11z m39 -3 c15 -50 17 -53 26 -38 5 8
7 23 4 33 -3 9 -1 17 5 17 6 0 11 -8 11 -17 1 -17 1 -17 11 0 11 18 44 23 54
8 3 -5 -5 -17 -17 -26 -23 -16 -23 -16 -4 -30 19 -15 19 -15 -2 -15 -12 0 -27
10 -33 22 l-12 22 -8 -22 c-5 -12 -15 -22 -24 -22 -15 0 -35 37 -35 66 0 17
19 19 24 2z m234 -5 c13 -24 -3 -63 -26 -63 -22 0 -42 19 -42 40 0 38 52 55
68 23z m90 -21 c3 -26 -1 -35 -16 -39 -11 -3 -22 -13 -25 -24 -11 -42 -27 -17
-27 42 l0 60 33 -3 c28 -3 32 -7 35 -36z m77 29 c3 -5 0 -13 -6 -17 -6 -3 -15
0 -20 7 -5 9 -7 5 -6 -14 1 -15 9 -32 17 -37 12 -8 11 -10 -6 -10 -33 0 -49
25 -36 55 11 25 45 34 57 16z m75 -3 c0 -4 -6 -7 -12 -5 -8 1 -14 -11 -16 -30
-5 -49 -32 -44 -32 6 0 38 2 40 30 39 17 -1 30 -5 30 -10z m274 -10 c8 -13 8
-23 0 -35 -28 -45 -89 -9 -64 38 13 24 48 22 64 -3z m84 -1 c5 -25 -6 -67 -18
-67 -5 0 -6 15 -3 34 3 19 1 36 -6 40 -7 5 -11 -5 -11 -28 0 -25 -4 -36 -15
-36 -11 0 -15 11 -15 41 0 39 1 40 32 37 22 -2 34 -9 36 -21z m232 11 c0 -4
-6 -7 -12 -5 -8 1 -14 -11 -16 -31 -4 -44 -26 -36 -30 11 -3 34 -2 36 27 35
17 -1 31 -5 31 -10z m108 -30 c4 -43 -13 -51 -29 -15 l-10 22 5 -22 c3 -15 -1
-23 -9 -23 -20 0 -28 19 -16 34 6 7 8 16 5 19 -12 11 8 28 29 25 17 -2 23 -11
25 -40z m47 2 c0 -18 -6 -35 -12 -37 -9 -3 -13 8 -13 37 0 29 4 40 13 38 6 -3
12 -20 12 -38z m43 4 c2 -18 -3 -36 -11 -43 -13 -10 -15 -5 -19 34 -2 36 0 45
12 43 9 -2 16 -16 18 -34z"/>
<path d="M2709 3019 c-9 -17 -8 -25 4 -37 29 -28 73 12 47 43 -17 21 -37 19
-51 -6z"/>
<path d="M2393 2904 c-48 -17 -120 -78 -146 -122 l-17 -30 81 -60 c44 -32 104
-71 133 -87 l53 -29 56 35 c82 50 196 142 197 157 0 8 -24 37 -53 66 -83 80
-199 107 -304 70z"/>
<path d="M2205 2669 c-9 -50 1 -113 27 -166 18 -39 21 -41 46 -32 55 20 162
72 162 78 0 3 -17 16 -38 27 -20 12 -72 47 -114 77 l-77 55 -6 -39z"/>
<path d="M2658 2631 c-59 -42 -107 -79 -107 -82 -1 -3 32 -20 72 -36 117 -49
113 -49 135 -6 11 21 22 53 26 72 7 37 -2 132 -13 130 -3 -1 -54 -35 -113 -78z"/>
<path d="M2395 2474 c-49 -24 -94 -45 -100 -48 -15 -6 22 -33 84 -63 96 -46
218 -29 303 42 26 22 28 26 11 32 -10 3 -58 24 -107 45 -49 21 -92 38 -95 37
-3 0 -46 -20 -96 -45z"/>
<path d="M972 1718 c-7 -7 -12 -25 -12 -41 0 -39 34 -34 38 7 4 34 -9 51 -26
34z"/>
<path d="M1456 1714 c-21 -20 -20 -53 0 -61 19 -7 34 13 34 44 0 29 -15 37
-34 17z"/>
<path d="M2190 1780 c-21 -40 -8 -143 18 -138 22 4 35 52 28 103 -8 48 -30 65
-46 35z"/>
<path d="M2706 1714 c-21 -20 -20 -53 0 -61 19 -7 34 13 34 44 0 29 -15 37
-34 17z"/>
<path d="M3302 1718 c-7 -7 -12 -25 -12 -41 0 -39 34 -34 38 7 4 34 -9 51 -26
34z"/>
<path d="M3652 1718 c-7 -7 -12 -25 -12 -41 0 -39 34 -34 38 7 4 34 -9 51 -26
34z"/>
<path d="M4362 1718 c-7 -7 -12 -25 -12 -41 0 -39 34 -34 38 7 4 34 -9 51 -26
34z"/>
<path d="M1910 1300 c0 -16 5 -30 10 -30 6 0 10 14 10 30 0 17 -4 30 -10 30
-5 0 -10 -13 -10 -30z"/>
<path d="M2060 1320 c0 -36 4 -50 14 -50 17 0 27 47 15 77 -15 39 -29 26 -29
-27z"/>
<path d="M3110 1300 c0 -16 5 -30 10 -30 6 0 10 14 10 30 0 17 -4 30 -10 30
-5 0 -10 -13 -10 -30z"/>
<path d="M3190 1320 c0 -5 5 -10 10 -10 6 0 10 5 10 10 0 6 -4 10 -10 10 -5 0
-10 -4 -10 -10z"/>
<path d="M3540 1300 c0 -16 5 -30 10 -30 6 0 10 14 10 30 0 17 -4 30 -10 30
-5 0 -10 -13 -10 -30z"/>
<path d="M2160 1320 c0 -5 5 -10 10 -10 6 0 10 5 10 10 0 6 -4 10 -10 10 -5 0
-10 -4 -10 -10z"/>
<path d="M2310 1320 c0 -5 5 -10 10 -10 6 0 10 5 10 10 0 6 -4 10 -10 10 -5 0
-10 -4 -10 -10z"/>
<path d="M2430 1300 c0 -16 5 -30 10 -30 6 0 10 14 10 30 0 17 -4 30 -10 30
-5 0 -10 -13 -10 -30z"/>
<path d="M2520 1300 c0 -18 4 -29 10 -25 6 3 10 15 10 25 0 10 -4 22 -10 25
-6 4 -10 -7 -10 -25z"/>
<path d="M2940 1300 c0 -16 5 -30 10 -30 6 0 10 14 10 30 0 17 -4 30 -10 30
-5 0 -10 -13 -10 -30z"/>
<path d="M3365 1320 c3 -5 8 -10 11 -10 2 0 4 5 4 10 0 6 -5 10 -11 10 -5 0
-7 -4 -4 -10z"/>
</g>
</svg>
